<?xml version="1.0" standalone="no"?><!DOCTYPE svg PUBLIC "-//W3C//DTD SVG 1.1//EN" "http://www.w3.org/Graphics/SVG/1.1/DTD/svg11.dtd"><svg t="1727437711232" class="icon" viewBox="0 0 1024 1024" version="1.1" xmlns="http://www.w3.org/2000/svg" p-id="4303" xmlns:xlink="http://www.w3.org/1999/xlink" width="200" height="200"><path d="M291.6 320.8h41v41h-41zM372.9 320.8h202.9v41H372.9zM291.6 401.7h41v41h-41zM372.9 401.7h202.9v41H372.9zM291.6 484.9h41v41h-41zM372.9 484.9h122.6v41H372.9z" p-id="4304"></path><path d="M732.8 537.3c0-44.8-30.5-82.5-71.7-93.7v-250H209.5v610.9H447v25.3h378.9V547.7h-93.2v-10.4z m-49.3 0v10.4h-96v-10.4c0-26.5 21.5-48 48-48 26.5 0.1 48 21.6 48 48z m-424.8 218V242.8h353.1v200.3c-42.2 10.6-73.5 48.8-73.5 94.2v10.4H447v207.5H258.7z m237.5 25.3V675.4c36.3 17.5 75.4 28.2 115.6 31.3v39.2H661v-39.2c40.2-3.1 79.3-13.8 115.6-31.3v105.2H496.2z m280.5-147.8c-42.9 24.2-91 37.1-140.2 37.1-49.3 0-97.4-12.8-140.2-37.1V597h280.5v35.8z" p-id="4305"></path></svg>